<?xml version="1.0" standalone="no"?><!DOCTYPE svg PUBLIC "-//W3C//DTD SVG 1.1//EN" "http://www.w3.org/Graphics/SVG/1.1/DTD/svg11.dtd"><svg t="1565229687688" class="icon" viewBox="0 0 1024 1024" version="1.1" xmlns="http://www.w3.org/2000/svg" p-id="705" xmlns:xlink="http://www.w3.org/1999/xlink" width="12" height="12"><defs><style type="text/css"></style></defs><path d="M668.3904 884.28032c-48.96768 20.7104-100.99712 31.21152-154.63424 31.21152-53.63712 0-105.65632-10.50112-154.63424-31.21152-47.30368-20.00896-89.78944-48.65536-126.27456-85.1456-36.49024-36.49024-65.13664-78.976-85.1456-126.27968-20.71552-48.96768-31.22176-100.99712-31.22176-154.62912 0-53.632 10.50624-105.65632 31.22176-154.62912 20.00896-47.30368 48.65536-89.78944 85.1456-126.27968 36.48512-36.49024 78.976-65.13664 126.27456-85.1456 48.9728-20.7104 100.99712-31.21664 154.63424-31.21664 53.63712 0 105.66144 10.50624 154.62912 31.21664 47.30368 20.00896 89.79456 48.65536 126.27968 85.1456 36.49024 36.49024 65.13664 78.976 85.1456 126.27968 20.7104 48.96768 31.21664 100.99712 31.21664 154.62912 0 53.63712-10.50112 105.66144-31.21664 154.62912-20.00896 47.30368-48.65024 89.78944-85.14048 126.27968C758.17984 835.61984 715.69408 864.27136 668.3904 884.28032zM938.98752 338.59072c-23.2448-54.95296-56.51968-104.30976-98.90304-146.688-42.37824-42.37824-91.72992-75.65824-146.688-98.90304-56.89856-24.06912-117.34016-36.2752-179.63008-36.2752-62.29504 0-122.73152 12.20608-179.63008 36.2752-54.95296 23.2448-104.30976 56.5248-146.69312 98.90304-42.37824 42.37824-75.65312 91.73504-98.90304 146.688-24.06912 56.90368-36.2752 117.34016-36.2752 179.63008 0 62.29504 12.20608 122.73152 36.2752 179.6352 23.2448 54.95296 56.51968 104.30976 98.89792 146.688 42.38336 42.37824 91.73504 75.65312 146.688 98.89792 56.90368 24.06912 117.34528 36.2752 179.6352 36.2752 62.29504 0 122.73664-12.20608 179.6352-36.2752 54.95808-23.2448 104.30976-56.51968 146.688-98.89792s75.65824-91.73504 98.90304-146.688c24.064-56.90368 36.2752-117.34016 36.2752-179.6352C975.2576 455.93088 963.05664 395.49952 938.98752 338.59072z" p-id="706" fill="#008080"></path><path d="M803.0976 591.04256c0 57.48224-45.98784 107.30496-107.31008 107.30496L331.71968 698.34752c-57.48736 0-107.30496-45.98784-107.30496-107.30496l0-68.98176L224.41472 445.40928c0-57.48736 45.98784-107.30496 107.30496-107.30496l122.63424 0c72.81152 0 114.97472 19.16416 134.13376 88.14592l11.4944 0 95.81056 0c76.65152 0 107.31008 34.48832 107.31008 80.48128C803.0976 525.89056 803.0976 591.04256 803.0976 591.04256zM749.44512 522.0608c0 0 0-42.15808-53.65248-42.15808l-107.30496 0-49.8176 0-3.83488-34.48832c-15.32416-30.65856-26.82368-53.65248-80.47616-53.65248L331.71968 391.76192c-30.65856 0-53.65248 22.99392-53.65248 53.65248l0 22.99392 0 53.6576 0 68.98176c0 30.65856 22.99392 53.65248 53.65248 53.65248l364.07296 0c30.65856 0 53.65248-22.9888 53.65248-53.65248L749.44512 522.0608z" p-id="707" fill="#008080"></path></svg>