<?xml version="1.0" standalone="no"?><!DOCTYPE svg PUBLIC "-//W3C//DTD SVG 1.1//EN" "http://www.w3.org/Graphics/SVG/1.1/DTD/svg11.dtd"><svg t="1568712888775" class="icon" viewBox="0 0 1024 1024" version="1.1" xmlns="http://www.w3.org/2000/svg" p-id="6488" width="12" height="12" xmlns:xlink="http://www.w3.org/1999/xlink"><defs><style type="text/css"></style></defs><path d="M512 512m-512 0a512 512 0 1 0 1024 0 512 512 0 1 0-1024 0Z" fill="#CD96CD" p-id="6489" data-spm-anchor-id="a313x.7781069.0.i43" class="selected"></path><path d="M928 398.928c0-28.264-28.264-37.688-141.336-37.688 0 0-23.776-1.568-36.608-1.568-66.664 0-125.168 4.576-159.792 31.192-28.544 5-57.376 8.168-86.272 8.464-28.904-0.296-57.728-3.464-86.272-8.464-34.632-26.616-93.12-31.192-159.792-31.192-12.832 0-36.608 1.568-36.608 1.568-113.064 0-141.336 9.424-141.336 37.688v37.696c0 7.096 16.024 24.856 23.936 37.24-0.128 16.848 2.408 35.816 8.144 57.168C146.272 658.368 189.416 664.32 257.92 664.32c102.712 0 142.728-16.144 171.144-95.2 7.904-21.984 13.44-41.576 16.992-59.224 11.304-23.784 27.744-35.576 57.936-35.576s46.632 11.808 57.936 35.576c3.552 17.648 9.08 37.24 16.992 59.224 28.416 79.072 68.424 95.2 171.144 95.2 68.504 0 111.648-5.952 145.856-133.288 5.736-21.36 8.264-40.312 8.144-57.168 7.912-12.384 23.936-30.16 23.936-37.24v-37.696z" fill="#263740" p-id="6490" data-spm-anchor-id="a313x.7781069.0.i41" class=""></path><path d="M409.728 390.864c28.544 5 57.368 8.168 86.272 8.464 1.336-0.016 2.664-0.112 4-0.144-27.56-0.528-55.048-3.552-82.272-8.32-34.632-26.616-93.12-31.192-159.792-31.192l-2.88 0.024c64.528 0.24 120.936 5.24 154.672 31.168zM786.664 361.24s-23.776-1.568-36.608-1.568c-1.72 0-3.416 0.016-5.12 0.024 13.2 0.192 33.728 1.544 33.728 1.544 113.064 0 141.336 9.424 141.336 37.688v37.696c0 7.096-16.024 24.856-23.936 37.24 0.128 16.848-2.408 35.816-8.144 57.168-33.176 123.504-74.768 132.832-139.736 133.264 0.656 0.008 1.224 0.024 1.872 0.024 68.504 0 111.648-5.952 145.856-133.288 5.736-21.36 8.264-40.312 8.144-57.168 7.912-12.384 23.936-30.16 23.936-37.24v-37.696c0.008-28.264-28.256-37.688-141.328-37.688zM496 474.312c-30.192 0-46.632 11.808-57.936 35.576-3.552 17.648-9.08 37.24-16.992 59.224-28.232 78.56-67.992 94.976-169.272 95.176 2.016 0.016 4.064 0.024 6.128 0.024 102.712 0 142.728-16.152 171.144-95.2 7.904-21.984 13.44-41.576 16.992-59.224 10.776-22.664 26.36-34.32 53.936-35.376-1.352-0.04-2.592-0.2-4-0.2z" fill="#1E2C33" p-id="6491"></path><path d="M257.936 645.488c-59.616 0-95.6 0-127.656-119.336-12.528-46.608-9.496-82.504 9.032-106.672 25.96-33.848 78.832-40.952 118.624-40.952 79.712 0 137.672 6.912 161.416 40.696 19.152 27.24 16.456 75.528-8 143.52-24.184 67.272-52.856 82.744-153.416 82.744zM747.712 645.488c-100.616 0-129.312-15.472-153.48-82.744-24.456-68.008-27.128-116.288-7.968-143.52 23.752-33.784 81.72-40.696 161.448-40.696 39.792 0 92.64 7.112 118.592 40.976 18.52 24.16 21.536 60.048 9 106.64-32.072 119.344-68.024 119.344-127.592 119.344z" fill="#2c2c2c" p-id="6492" data-spm-anchor-id="a313x.7781069.0.i38" class=""></path><path d="M96 392a12 8 0 1 0 24 0 12 8 0 1 0-24 0Z" fill="#F5F5F5" p-id="6493" data-spm-anchor-id="a313x.7781069.0.i40" class=""></path><path d="M888 392a12 8 0 1 0 24 0 12 8 0 1 0-24 0Z" fill="#F5F5F5" p-id="6494" data-spm-anchor-id="a313x.7781069.0.i42"></path><path d="M212.288 382.136L127.24 513.112a250.28 250.28 0 0 0 5.32 21.2l100.512-154.776c-6.864 0.552-13.832 1.408-20.784 2.6zM318.264 380.52c-18.328-1.464-38.472-2.008-60.328-2.008-1.696 0-3.448 0.032-5.184 0.064L138.648 554.28c8.88 26.936 18.176 45.92 28.272 59.288l151.344-233.048z" fill="#2c2c2c" p-id="6495" data-spm-anchor-id="a313x.7781069.0.i39" class=""></path><path d="M764.504 378.968l-148.016 227.92c11.504 15.152 26.064 24.832 46.848 30.664l160.64-247.36c-18.88-7.032-39.968-10.176-59.472-11.224zM745.704 378.528c-6.56 0.008-12.952 0.08-19.2 0.184l-127.52 196.368c2.552 6.192 5.24 11.784 8.048 16.984l138.672-213.536z" fill="#2c2c2c" p-id="6496" data-spm-anchor-id="a313x.7781069.0.i37" class=""></path></svg>