<?xml version="1.0" standalone="no"?><!DOCTYPE svg PUBLIC "-//W3C//DTD SVG 1.1//EN" "http://www.w3.org/Graphics/SVG/1.1/DTD/svg11.dtd"><svg t="1562059240465" class="icon" viewBox="0 0 1024 1024" version="1.1" xmlns="http://www.w3.org/2000/svg" p-id="936" xmlns:xlink="http://www.w3.org/1999/xlink" width="16" height="16"><defs><style type="text/css"></style></defs><path d="M818.559 390.487a411.202 411.202 0 0 0-197.587-122.625l-83.586-153.258L602.667 0H1024L818.559 390.487zM512.002 253.144a409.971 409.971 0 0 0-303.83 134.272L0 0h421.376l131.158 255.147a422.636 422.636 0 0 0-40.532-2.003z m0 51.24c198.714 0 359.806 161.091 359.806 359.809 0 198.716-161.092 359.807-359.806 359.807-198.717 0-359.809-161.091-359.809-359.807-0.001-198.718 161.091-359.809 359.809-359.809z m-133.846 552.15l133.845-70.356 133.844 70.356-25.556-149.036 108.289-105.556-149.634-21.761-66.942-135.637L445.1 580.181l-149.675 21.761 108.289 105.556-25.558 149.036z" fill="#C7BA98" p-id="937"></path></svg>