<?xml version="1.0" standalone="no"?><!DOCTYPE svg PUBLIC "-//W3C//DTD SVG 1.1//EN" "http://www.w3.org/Graphics/SVG/1.1/DTD/svg11.dtd"><svg t="1562057517518" class="icon" viewBox="0 0 1024 1024" version="1.1" xmlns="http://www.w3.org/2000/svg" p-id="7226" xmlns:xlink="http://www.w3.org/1999/xlink" width="200" height="200"><defs><style type="text/css"></style></defs><path d="M480.493 264.641c-191.932 0-347.527 155.592-347.527 347.527 0 191.933 155.595 347.527 347.527 347.527S828.02 804.101 828.02 612.168c0-191.935-155.594-347.527-347.527-347.527z m178.694 316.532l-68.521 66.792 16.175 94.312c5.433 31.662-12.654 45.507-41.65 30.262l-84.697-44.53-84.697 44.53c-28.432 14.947-47.19 2.027-41.65-30.262l16.176-94.312-68.521-66.792c-23.002-22.42-16.51-44.252 15.908-48.962l94.694-13.76 42.35-85.81c14.217-28.804 36.986-29.374 51.483 0l42.35 85.81 94.693 13.76c31.788 4.619 39.367 26.097 15.907 48.962z m146.18-516.87H590.49c-11.596 0-20.893 8.118-23.62 18.866l-66.24 130.608s141.828 8.533 225.607 89.209l98.934-199.642c2.932-4.076 5.02-8.812 5.02-14.218-0.001-13.708-11.115-24.822-24.824-24.822zM456.854 213.778L390.614 83.17c-2.727-10.748-12.023-18.865-23.62-18.865H152.118c-13.709 0-24.824 11.115-24.824 24.823 0 5.406 2.088 10.142 5.022 14.218l98.933 199.642c83.777-80.677 225.605-89.21 225.605-89.21z" fill="#DBBB83" p-id="7227"></path></svg>