<?xml version="1.0" standalone="no"?><!DOCTYPE svg PUBLIC "-//W3C//DTD SVG 1.1//EN" "http://www.w3.org/Graphics/SVG/1.1/DTD/svg11.dtd"><svg t="1563967373273" class="icon" viewBox="0 0 1024 1024" version="1.1" xmlns="http://www.w3.org/2000/svg" p-id="700" width="16" height="16" xmlns:xlink="http://www.w3.org/1999/xlink"><defs><style type="text/css"></style></defs><path d="M246.007927 628.608811c-25.697265 48.989761-52.488445 66.48625-80.483033 52.489468L162.025187 313.677119c0-4.647857 1.14815-8.146541 3.498684-10.497075 2.296299 0 4.647857 1.202385 6.998391 3.498684l66.485227 38.491663 216.954217-6.998391 0-73.484641-3.499707-153.966651 104.977913 27.993564c6.998391 0 8.146541 3.498684 3.498684 10.498098-6.998391 6.998391-12.848633 18.698874-17.496489 34.991955l0 153.967674 202.956412-3.499707 41.99137-52.488445 83.981716 48.989761c4.646833 2.351558 4.646833 5.851265 0 10.498098l-20.996197 31.493272 3.499707 202.955388 6.998391 20.996197c4.647857 9.349949 1.14815 13.996782-10.498098 13.996782-58.33971-6.998391-160.966065-8.146541-307.934325-3.498684l0 160.965042 0 97.979522c-11.700483 44.286646-37.343513 79.279624-76.983325 104.97689-6.998391 2.296299-12.848633-2.350534-17.496489-13.996782l6.998391-171.464163L455.959659 607.614661c-34.992979 0-81.685417 1.202385-139.969868 3.498684-34.992979 0-58.33971 0-69.984934 0L246.004857 628.608811zM242.508219 366.166587l0 220.451878 213.45451-3.499707L455.962729 362.66688 242.508219 366.166587zM749.899248 355.668489l-206.456119 3.498684 0 220.452901 209.955826-3.499707L749.899248 355.668489z" p-id="701" fill="#EE6363"></path></svg>