<?xml version="1.0" standalone="no"?><!DOCTYPE svg PUBLIC "-//W3C//DTD SVG 1.1//EN" "http://www.w3.org/Graphics/SVG/1.1/DTD/svg11.dtd"><svg t="1565936097161" class="icon" viewBox="0 0 1024 1024" version="1.1" xmlns="http://www.w3.org/2000/svg" p-id="7813" xmlns:xlink="http://www.w3.org/1999/xlink" width="12" height="12"><defs><style type="text/css"></style></defs><path d="M512 512m-512 0a512 512 0 1 0 1024 0 512 512 0 1 0-1024 0Z" fill="#3399FF" p-id="7814"></path><path d="M150.57 620.116V347.83h77.696c41.248 0 75.556 12.014 102.92 36.036 27.362 24.024 41.044 56.25 41.044 96.68 0 42.188-13.684 75.998-41.044 101.426-27.364 25.43-62.608 38.144-105.732 38.144H150.57zM185.726 379.12v209.882h39.55c34.568 0 61.55-9.432 80.948-28.3 19.394-18.868 29.092-45.292 29.092-79.278 0-33.984-9.962-59.53-29.882-76.64-19.924-17.11-46.116-25.664-78.574-25.664H185.726zM407.21 487.224c0-43.946 11.892-78.926 35.684-104.942 23.788-26.016 56.014-39.024 96.68-39.024 37.852 0 68.318 12.716 91.406 38.144 23.086 25.43 34.628 58.536 34.628 99.316 0 44.182-11.838 79.218-35.508 105.118-23.672 25.9-55.312 38.848-94.922 38.848-38.672 0-69.67-12.714-92.988-38.144-23.32-25.426-34.98-58.534-34.98-99.316z m36.916-2.812c0 32.932 8.408 59.326 25.224 79.19 16.814 19.864 38.76 29.794 65.83 29.794 29.062 0 51.882-9.52 68.466-28.564 16.58-19.042 24.874-45.674 24.874-79.892 0-35.156-8.118-62.286-24.346-81.386-16.232-19.1-38.468-28.652-66.708-28.652-27.774 0-50.274 10.08-67.5 30.234-17.228 20.156-25.84 46.58-25.84 79.276zM904.496 608.866c-20.04 10.546-45.176 15.82-75.41 15.82-39.024 0-70.198-12.392-93.516-37.178-23.32-24.786-34.98-57.568-34.98-98.35 0-43.828 13.124-79.102 39.376-105.82 26.25-26.718 59.59-40.078 100.02-40.078 26.016 0 47.52 3.692 64.512 11.074v36.738c-19.454-10.782-40.842-16.172-64.16-16.172-30.352 0-55.08 10.108-74.18 30.322-19.102 20.214-28.652 47.49-28.652 81.826 0 32.58 8.904 58.448 26.718 77.608 17.812 19.16 41.132 28.74 69.96 28.74 26.954 0 50.388-6.092 70.312-18.282v33.752z" fill="#FFFFFF" p-id="7815"></path></svg>