<?xml version="1.0" standalone="no"?><!DOCTYPE svg PUBLIC "-//W3C//DTD SVG 1.1//EN" "http://www.w3.org/Graphics/SVG/1.1/DTD/svg11.dtd"><svg t="1562057391727" class="icon" viewBox="0 0 1024 1024" version="1.1" xmlns="http://www.w3.org/2000/svg" p-id="4468" xmlns:xlink="http://www.w3.org/1999/xlink" width="200" height="200"><defs><style type="text/css"></style></defs><path d="M506.14004 240.930353c-224.538465 0-406.581221 175.329801-406.581221 391.563323S281.601575 1024 506.14004 1024s406.582221-175.301802 406.582221-391.535323S730.679505 240.958353 506.14004 240.958353z m209.805566 345.824636l-80.46945 76.543477 19.00087 108.088261c6.399956 36.266752-14.847899 52.138644-48.923666 34.673763l-99.41332-51.029651-99.46932 51.029651c-33.364772 17.122883-55.380621 2.331984-48.895666-34.701763l19.00087-108.059261-80.46945-76.544477c-27.020815-25.684824-19.369868-50.715653 18.688873-56.119616l111.18924-15.758893 49.71966-98.331327c16.696886-32.995774 43.434703-33.67777 60.443587 0l49.749659 98.331327 111.159241 15.757893c37.347745 5.290964 46.222684 29.923795 18.688872 56.120616zM883.225462 0.008h-255.258255c-13.795906 0-24.83183 9.215937-28.074808 21.417854l-78.676462 148.336986s168.474848 9.670934 268.030168 101.289307L906.777301 44.352697a26.737817 26.737817 0 0 0 5.973959-16.15589c0-15.559894-13.22691-28.187807-29.525798-28.187807zM491.093143 169.76284L412.388681 21.425854A28.842803 28.842803 0 0 0 384.340873 0.008H129.055618C112.756729 0.007 99.558819 12.636914 99.558819 28.195807c0 6.143958 2.473983 11.519921 5.97296 16.15589l117.531196 226.70145c99.52732-91.591374 268.030168-101.290308 268.030168-101.290307z" fill="#F1B619" p-id="4469"></path></svg>