<?xml version="1.0" standalone="no"?><!DOCTYPE svg PUBLIC "-//W3C//DTD SVG 1.1//EN" "http://www.w3.org/Graphics/SVG/1.1/DTD/svg11.dtd"><svg t="1564148560158" class="icon" viewBox="0 0 1024 1024" version="1.1" xmlns="http://www.w3.org/2000/svg" p-id="984" xmlns:xlink="http://www.w3.org/1999/xlink" width="12" height="12"><defs><style type="text/css"></style></defs><path d="M472.8 245.6L384.7 0H57.3l141.8 385.6c68.3-77.6 164.9-129.7 273.7-140z m352.4 139.2L966.7 0H639.3l-88 245.6c108.8 10 205.4 61.8 273.9 139.2z" fill="#EB6666" p-id="985"></path><path d="M149 661a363 363 0 1 0 726 0 363 363 0 1 0-726 0z" fill="#F6B35B" p-id="986"></path><path d="M226.9 661a285.1 285.1 0 1 0 570.2 0 285.1 285.1 0 1 0-570.2 0z" fill="#F8DE82" p-id="987"></path><path d="M628.9 839.3l-116.4-60.7-116 61.4 21.8-129.4-94.3-91.4 129.8-19.3L511.6 482 570 599.5 700 618l-93.7 91.9z" fill="#EB6666" p-id="988"></path></svg>