<?xml version="1.0" standalone="no"?><!DOCTYPE svg PUBLIC "-//W3C//DTD SVG 1.1//EN" "http://www.w3.org/Graphics/SVG/1.1/DTD/svg11.dtd"><svg t="1562059162539" class="icon" viewBox="0 0 1024 1024" version="1.1" xmlns="http://www.w3.org/2000/svg" p-id="626" width="16" height="16" xmlns:xlink="http://www.w3.org/1999/xlink"><defs><style type="text/css"></style></defs><path d="M818.569846 390.459077a411.175385 411.175385 0 0 0-197.632-122.564923l-83.495384-153.284923L602.584615 0H1024l-205.430154 390.459077zM512 253.164308a409.993846 409.993846 0 0 0-303.812923 134.222769L0 0h421.415385l131.150769 255.212308a422.596923 422.596923 0 0 0-40.566154-2.048z m0 51.2A359.817846 359.817846 0 1 1 512 1024a359.817846 359.817846 0 0 1 0-719.635692z m-133.907692 552.172307l133.907692-70.340923 133.907692 70.340923-25.6-149.031384 108.307693-105.550769-149.661539-21.740308-66.953846-135.640616-66.953846 135.640616-149.661539 21.740308 108.307693 105.550769-25.521231 149.031384z" fill="#FCB645" p-id="627"></path></svg>