<?xml version="1.0" standalone="no"?><!DOCTYPE svg PUBLIC "-//W3C//DTD SVG 1.1//EN" "http://www.w3.org/Graphics/SVG/1.1/DTD/svg11.dtd"><svg t="1568688947824" class="icon" viewBox="0 0 1024 1024" version="1.1" xmlns="http://www.w3.org/2000/svg" p-id="2727" data-spm-anchor-id="a313x.7781069.0.i0" xmlns:xlink="http://www.w3.org/1999/xlink" width="12" height="12"><defs><style type="text/css"></style></defs><path d="M292.8 730.88h79.68v-248H293.76l-0.96 248z" p-id="2728" fill="#EE5C42"></path><path d="M512 0a512 512 0 1 0 512 512A512 512 0 0 0 512 0z m240 553.28l-76.8 177.6a44.16 44.16 0 0 1-15.68 19.84 43.2 43.2 0 0 1-24.64 7.68h-178.24a13.76 13.76 0 0 1 0-27.84h178.24a16.96 16.96 0 0 0 9.6-2.88 15.36 15.36 0 0 0 6.08-7.68l76.8-177.92a43.84 43.84 0 0 0-3.2-41.28 42.56 42.56 0 0 0-35.84-20.8H576a13.44 13.44 0 0 1-12.8-9.92 14.08 14.08 0 0 1 5.44-15.68c22.4-15.04 39.04-87.68 24.32-132.8-9.92-32-28.48-29.76-34.24-29.44h-6.08a38.4 38.4 0 0 0-27.52 11.52 39.68 39.68 0 0 0-11.2 27.84v29.44A121.28 121.28 0 0 1 480 448a115.2 115.2 0 0 1-72.64 34.88h-7.04v241.28a34.24 34.24 0 0 1-9.92 24.32 32 32 0 0 1-23.68 9.92H297.92a32 32 0 0 1-22.4-9.6 32 32 0 0 1-9.28-23.04v-234.24a36.48 36.48 0 0 1 10.56-25.6 35.2 35.2 0 0 1 24.96-10.56h94.4a89.92 89.92 0 0 0 64-27.2 93.44 93.44 0 0 0 26.56-65.6v-29.76a67.2 67.2 0 0 1 19.2-47.36 64 64 0 0 1 46.4-19.52h5.44a60.8 60.8 0 0 1 60.48 48.32 201.92 201.92 0 0 1-8.32 128l-4.8 10.88h82.56a69.12 69.12 0 0 1 58.24 32 72.32 72.32 0 0 1 6.08 68.16z" p-id="2729" fill="#EE5C42" data-spm-anchor-id="a313x.7781069.0.i1" class=""></path></svg>